<svg width="46" height="14" viewBox="0 0 46 14" fill="none" xmlns="http://www.w3.org/2000/svg">
<path d="M7.81152 1.04688V11H6.48535L1.47461 3.32324V11H0.155273V1.04688H1.47461L6.50586 8.74414V1.04688H7.81152ZM9.62305 7.38379V7.22656C9.62305 6.69336 9.70052 6.19889 9.85547 5.74316C10.0104 5.28288 10.2337 4.88411 10.5254 4.54688C10.8171 4.20508 11.1702 3.94076 11.585 3.75391C11.9997 3.5625 12.4645 3.4668 12.9795 3.4668C13.499 3.4668 13.9661 3.5625 14.3809 3.75391C14.8001 3.94076 15.1556 4.20508 15.4473 4.54688C15.7435 4.88411 15.9691 5.28288 16.124 5.74316C16.279 6.19889 16.3564 6.69336 16.3564 7.22656V7.38379C16.3564 7.91699 16.279 8.41146 16.124 8.86719C15.9691 9.32292 15.7435 9.72168 15.4473 10.0635C15.1556 10.4007 14.8024 10.665 14.3877 10.8564C13.9775 11.0433 13.5127 11.1367 12.9932 11.1367C12.4736 11.1367 12.0065 11.0433 11.5918 10.8564C11.1771 10.665 10.8216 10.4007 10.5254 10.0635C10.2337 9.72168 10.0104 9.32292 9.85547 8.86719C9.70052 8.41146 9.62305 7.91699 9.62305 7.38379ZM10.8877 7.22656V7.38379C10.8877 7.75293 10.931 8.10156 11.0176 8.42969C11.1042 8.75326 11.234 9.04036 11.4072 9.29102C11.585 9.54167 11.806 9.73991 12.0703 9.88574C12.3346 10.027 12.6423 10.0977 12.9932 10.0977C13.3395 10.0977 13.6426 10.027 13.9023 9.88574C14.1667 9.73991 14.3854 9.54167 14.5586 9.29102C14.7318 9.04036 14.8617 8.75326 14.9482 8.42969C15.0394 8.10156 15.085 7.75293 15.085 7.38379V7.22656C15.085 6.86198 15.0394 6.5179 14.9482 6.19434C14.8617 5.86621 14.7295 5.57682 14.5518 5.32617C14.3786 5.07096 14.1598 4.87044 13.8955 4.72461C13.6357 4.57878 13.3304 4.50586 12.9795 4.50586C12.6331 4.50586 12.3278 4.57878 12.0635 4.72461C11.8037 4.87044 11.585 5.07096 11.4072 5.32617C11.234 5.57682 11.1042 5.86621 11.0176 6.19434C10.931 6.5179 10.8877 6.86198 10.8877 7.22656ZM22.6045 9.56445V0.5H23.876V11H22.7139L22.6045 9.56445ZM17.6279 7.38379V7.24023C17.6279 6.67513 17.6963 6.16243 17.833 5.70215C17.9743 5.2373 18.1725 4.83854 18.4277 4.50586C18.6875 4.17318 18.9951 3.91797 19.3506 3.74023C19.7106 3.55794 20.1117 3.4668 20.5537 3.4668C21.0186 3.4668 21.4242 3.54883 21.7705 3.71289C22.1214 3.8724 22.4176 4.1071 22.6592 4.41699C22.9053 4.72233 23.099 5.09147 23.2402 5.52441C23.3815 5.95736 23.4795 6.44727 23.5342 6.99414V7.62305C23.484 8.16536 23.3861 8.65299 23.2402 9.08594C23.099 9.51888 22.9053 9.88802 22.6592 10.1934C22.4176 10.4987 22.1214 10.7334 21.7705 10.8975C21.4196 11.057 21.0094 11.1367 20.54 11.1367C20.1071 11.1367 19.7106 11.0433 19.3506 10.8564C18.9951 10.6696 18.6875 10.4076 18.4277 10.0703C18.1725 9.73307 17.9743 9.33659 17.833 8.88086C17.6963 8.42057 17.6279 7.92155 17.6279 7.38379ZM18.8994 7.24023V7.38379C18.8994 7.75293 18.9359 8.09928 19.0088 8.42285C19.0863 8.74642 19.2048 9.03125 19.3643 9.27734C19.5238 9.52344 19.7266 9.71712 19.9727 9.8584C20.2188 9.99512 20.5127 10.0635 20.8545 10.0635C21.2738 10.0635 21.6178 9.97461 21.8867 9.79688C22.1602 9.61914 22.3789 9.38444 22.543 9.09277C22.707 8.80111 22.8346 8.48438 22.9258 8.14258V6.49512C22.8711 6.24447 22.7913 6.00293 22.6865 5.77051C22.5863 5.53353 22.4541 5.32389 22.29 5.1416C22.1305 4.95475 21.9323 4.80664 21.6953 4.69727C21.4629 4.58789 21.1872 4.5332 20.8682 4.5332C20.5218 4.5332 20.2233 4.60612 19.9727 4.75195C19.7266 4.89323 19.5238 5.08919 19.3643 5.33984C19.2048 5.58594 19.0863 5.87305 19.0088 6.20117C18.9359 6.52474 18.8994 6.87109 18.8994 7.24023ZM28.9141 11.1367C28.3991 11.1367 27.932 11.0501 27.5127 10.877C27.098 10.6992 26.7402 10.4508 26.4395 10.1318C26.1432 9.81283 25.9154 9.43457 25.7559 8.99707C25.5964 8.55957 25.5166 8.08105 25.5166 7.56152V7.27441C25.5166 6.67285 25.6055 6.13737 25.7832 5.66797C25.9609 5.19401 26.2025 4.79297 26.5078 4.46484C26.8132 4.13672 27.1595 3.88835 27.5469 3.71973C27.9342 3.55111 28.3353 3.4668 28.75 3.4668C29.2786 3.4668 29.7344 3.55794 30.1172 3.74023C30.5046 3.92253 30.8213 4.17773 31.0674 4.50586C31.3135 4.82943 31.4958 5.21224 31.6143 5.6543C31.7327 6.0918 31.792 6.57031 31.792 7.08984V7.65723H26.2686V6.625H30.5273V6.5293C30.5091 6.20117 30.4408 5.88216 30.3223 5.57227C30.2083 5.26237 30.026 5.00716 29.7754 4.80664C29.5247 4.60612 29.1829 4.50586 28.75 4.50586C28.4629 4.50586 28.1986 4.56738 27.957 4.69043C27.7155 4.80892 27.5081 4.98665 27.335 5.22363C27.1618 5.46061 27.0273 5.75 26.9316 6.0918C26.8359 6.43359 26.7881 6.8278 26.7881 7.27441V7.56152C26.7881 7.91243 26.8359 8.24284 26.9316 8.55273C27.0319 8.85807 27.1755 9.12695 27.3623 9.35938C27.5537 9.5918 27.7839 9.77409 28.0527 9.90625C28.3262 10.0384 28.6361 10.1045 28.9824 10.1045C29.429 10.1045 29.8073 10.0133 30.1172 9.83105C30.4271 9.64876 30.6982 9.40495 30.9307 9.09961L31.6963 9.70801C31.5368 9.94954 31.334 10.1797 31.0879 10.3984C30.8418 10.6172 30.5387 10.7949 30.1787 10.9316C29.8232 11.0684 29.4017 11.1367 28.9141 11.1367ZM33.2891 10.3301C33.2891 10.1159 33.3551 9.93587 33.4873 9.79004C33.624 9.63965 33.82 9.56445 34.0752 9.56445C34.3304 9.56445 34.5241 9.63965 34.6562 9.79004C34.793 9.93587 34.8613 10.1159 34.8613 10.3301C34.8613 10.5397 34.793 10.7174 34.6562 10.8633C34.5241 11.0091 34.3304 11.082 34.0752 11.082C33.82 11.082 33.624 11.0091 33.4873 10.8633C33.3551 10.7174 33.2891 10.5397 33.2891 10.3301ZM36.9941 3.60352H38.2656V11.8818C38.2656 12.333 38.1927 12.7158 38.0469 13.0303C37.9056 13.3447 37.6914 13.5817 37.4043 13.7412C37.1217 13.9053 36.764 13.9873 36.3311 13.9873C36.2171 13.9873 36.085 13.9759 35.9346 13.9531C35.7796 13.9303 35.6497 13.903 35.5449 13.8711L35.5518 12.8525C35.6383 12.8708 35.7363 12.8844 35.8457 12.8936C35.9551 12.9072 36.0508 12.9141 36.1328 12.9141C36.3197 12.9141 36.4769 12.8799 36.6045 12.8115C36.7321 12.7432 36.8278 12.6338 36.8916 12.4834C36.96 12.333 36.9941 12.1325 36.9941 11.8818V3.60352ZM36.8643 1.6416C36.8643 1.43652 36.9281 1.26335 37.0557 1.12207C37.1833 0.980794 37.3678 0.910156 37.6094 0.910156C37.8555 0.910156 38.0423 0.980794 38.1699 1.12207C38.2975 1.26335 38.3613 1.43652 38.3613 1.6416C38.3613 1.83757 38.2975 2.00618 38.1699 2.14746C38.0423 2.28418 37.8555 2.35254 37.6094 2.35254C37.3678 2.35254 37.1833 2.28418 37.0557 2.14746C36.9281 2.00618 36.8643 1.83757 36.8643 1.6416ZM44.6162 9.03809C44.6162 8.85579 44.5752 8.68717 44.4932 8.53223C44.4157 8.37272 44.2539 8.22917 44.0078 8.10156C43.7663 7.9694 43.4017 7.85547 42.9141 7.75977C42.5039 7.67318 42.1325 7.57064 41.7998 7.45215C41.4717 7.33366 41.1914 7.1901 40.959 7.02148C40.7311 6.85286 40.5557 6.65462 40.4326 6.42676C40.3096 6.19889 40.248 5.93229 40.248 5.62695C40.248 5.33529 40.3118 5.05957 40.4395 4.7998C40.5716 4.54004 40.7562 4.3099 40.9932 4.10938C41.2347 3.90885 41.5241 3.75163 41.8613 3.6377C42.1986 3.52376 42.5745 3.4668 42.9893 3.4668C43.5817 3.4668 44.0876 3.57161 44.5068 3.78125C44.9261 3.99089 45.2474 4.27116 45.4707 4.62207C45.694 4.96842 45.8057 5.35352 45.8057 5.77734H44.541C44.541 5.57227 44.4795 5.37402 44.3564 5.18262C44.238 4.98665 44.0625 4.82487 43.8301 4.69727C43.6022 4.56966 43.3219 4.50586 42.9893 4.50586C42.6383 4.50586 42.3535 4.56055 42.1348 4.66992C41.9206 4.77474 41.7633 4.90918 41.6631 5.07324C41.5674 5.2373 41.5195 5.41048 41.5195 5.59277C41.5195 5.72949 41.5423 5.85254 41.5879 5.96191C41.638 6.06673 41.7246 6.16471 41.8477 6.25586C41.9707 6.34245 42.1439 6.42448 42.3672 6.50195C42.5905 6.57943 42.8753 6.6569 43.2217 6.73438C43.8278 6.87109 44.3268 7.03516 44.7188 7.22656C45.1107 7.41797 45.4023 7.65267 45.5938 7.93066C45.7852 8.20866 45.8809 8.5459 45.8809 8.94238C45.8809 9.26595 45.8125 9.56217 45.6758 9.83105C45.5436 10.0999 45.3499 10.3324 45.0947 10.5283C44.8441 10.7197 44.5433 10.8701 44.1924 10.9795C43.846 11.0843 43.4564 11.1367 43.0234 11.1367C42.3717 11.1367 41.8203 11.0205 41.3691 10.7881C40.918 10.5557 40.5762 10.2549 40.3438 9.88574C40.1113 9.5166 39.9951 9.12695 39.9951 8.7168H41.2666C41.2848 9.06315 41.3851 9.33887 41.5674 9.54395C41.7497 9.74447 41.973 9.88802 42.2373 9.97461C42.5016 10.0566 42.7637 10.0977 43.0234 10.0977C43.3698 10.0977 43.6592 10.0521 43.8916 9.96094C44.1286 9.86979 44.3086 9.74447 44.4316 9.58496C44.5547 9.42546 44.6162 9.24316 44.6162 9.03809Z" fill="#1B1B1B"/>
</svg>
