<svg width="22" height="22" viewBox="0 0 22 22" fill="none" xmlns="http://www.w3.org/2000/svg">
<path d="M15.5409 9.6809C15.5409 9.6809 15.3577 8.11628 13.6831 8.11628C12.0086 8.11628 10.8617 8.33614 10.8617 9.26319C10.8617 10.1902 14.1192 10.1902 15.3577 10.5567C16.5962 10.9194 17.6881 11.8684 17.1422 13.543C16.5962 15.2175 14.9217 15.4008 12.3347 15.4008C9.74777 15.4008 9.16516 13.2535 9.16516 12.4144H10.6235C10.6235 12.4144 10.4403 13.7262 12.1515 13.9424C13.8627 14.1586 15.5006 14.2832 15.7205 12.9604C16.0136 11.2125 10.1838 12.0846 9.67449 10.3734C9.24211 8.92607 9.49128 7.02434 12.4043 6.7312C15.3174 6.43807 16.9187 7.72787 16.9187 9.64426L15.5409 9.6809Z" fill="#66A060"/>
<path d="M1.46667 16.5073L4.68753 18.3651C6.30712 19.2995 8.32976 18.1306 8.32976 16.2618V7.00599H7.01797V15.8954C7.01797 16.9141 5.91504 17.5553 5.0283 17.0423L2.78213 15.7452V6.2585L10.9973 1.51699L19.2125 6.2585V15.7452L10.9973 20.4867L8.63023 19.1199L7.08393 19.7428L10.9973 22L20.5243 16.5V5.5L10.9973 0L1.47034 5.5L1.46667 16.5073Z" fill="#66A060"/>
</svg>
