<svg width="22" height="22" viewBox="0 0 22 22" fill="none" xmlns="http://www.w3.org/2000/svg">
<path d="M13.475 5.77508C13.307 5.94644 13.213 6.17681 13.213 6.41675C13.213 6.65669 13.307 6.88707 13.475 7.05842L14.9417 8.52508C15.113 8.69304 15.3434 8.78712 15.5833 8.78712C15.8233 8.78712 16.0536 8.69304 16.225 8.52508L19.6808 5.06925C20.1418 6.08784 20.2813 7.22271 20.0809 8.32263C19.8805 9.42255 19.3496 10.4353 18.5591 11.2258C17.7685 12.0164 16.7558 12.5473 15.6559 12.7477C14.556 12.9481 13.4211 12.8085 12.4025 12.3476L6.06832 18.6817C5.70365 19.0464 5.20905 19.2513 4.69332 19.2513C4.1776 19.2513 3.683 19.0464 3.31832 18.6817C2.95365 18.3171 2.74878 17.8225 2.74878 17.3067C2.74878 16.791 2.95365 16.2964 3.31832 15.9317L9.65249 9.59758C9.19156 8.57899 9.052 7.44412 9.2524 6.3442C9.45281 5.24428 9.98367 4.23156 10.7742 3.44099C11.5648 2.65043 12.5775 2.11957 13.6774 1.91916C14.7774 1.71876 15.9122 1.85832 16.9308 2.31925L13.4842 5.76592L13.475 5.77508Z" stroke="black" stroke-linecap="round" stroke-linejoin="round"/>
</svg>
