<svg width="26" height="26" viewBox="0 0 26 26" fill="none" xmlns="http://www.w3.org/2000/svg">
<path d="M0 8C0 3.58172 3.58172 0 8 0H18C22.4183 0 26 3.58172 26 8V18C26 22.4183 22.4183 26 18 26H8C3.58172 26 0 22.4183 0 18V8Z" fill="#F7DF1E"/>
<path d="M6.83647 21.7275L8.82617 20.5234C9.21002 21.204 9.5592 21.7798 10.3968 21.7798C11.1996 21.7798 11.7058 21.4657 11.7058 20.2441V11.9365H14.1492V20.2787C14.1492 22.8094 12.6657 23.9612 10.5015 23.9612C8.54694 23.9612 7.41235 22.9489 6.83643 21.7273" fill="black"/>
<path d="M15.4761 21.4653L17.4656 20.3134C17.9893 21.1686 18.6699 21.7969 19.8741 21.7969C20.8865 21.7969 21.5321 21.2907 21.5321 20.5926C21.5321 19.7549 20.8689 19.4581 19.7519 18.9696L19.1412 18.7076C17.3784 17.9573 16.209 17.0149 16.209 15.0252C16.209 13.1927 17.6052 11.7964 19.7869 11.7964C21.3402 11.7964 22.4572 12.3375 23.2599 13.7512L21.3576 14.9728C20.9387 14.2224 20.485 13.9257 19.7869 13.9257C19.0714 13.9257 18.6176 14.3795 18.6176 14.9728C18.6176 15.7058 19.0714 16.0026 20.1184 16.4564L20.7292 16.7182C22.8061 17.6083 23.9755 18.5158 23.9755 20.5577C23.9755 22.7569 22.2477 23.961 19.9265 23.961C17.6577 23.961 16.1916 22.879 15.4761 21.4653" fill="black"/>
</svg>
