<svg width="22" height="22" viewBox="0 0 22 22" fill="none" xmlns="http://www.w3.org/2000/svg">
<path d="M18.3333 6.41675H3.66665C2.65412 6.41675 1.83331 7.23756 1.83331 8.25008V17.4167C1.83331 18.4293 2.65412 19.2501 3.66665 19.2501H18.3333C19.3458 19.2501 20.1666 18.4293 20.1666 17.4167V8.25008C20.1666 7.23756 19.3458 6.41675 18.3333 6.41675Z" stroke="#1B1B1B" stroke-linecap="round" stroke-linejoin="round"/>
<path d="M14.6666 19.25V4.58333C14.6666 4.0971 14.4735 3.63079 14.1297 3.28697C13.7859 2.94315 13.3195 2.75 12.8333 2.75H9.16665C8.68042 2.75 8.2141 2.94315 7.87028 3.28697C7.52647 3.63079 7.33331 4.0971 7.33331 4.58333V19.25" stroke="#1B1B1B" stroke-linecap="round" stroke-linejoin="round"/>
</svg>
