<svg width="26" height="26" viewBox="0 0 26 26" fill="none" xmlns="http://www.w3.org/2000/svg">
<path d="M26 12.6632C26 10.9408 23.8431 9.30853 20.5361 8.2963C21.2992 4.92573 20.96 2.24412 19.4656 1.38558C19.1211 1.18419 18.7183 1.0888 18.2784 1.0888V2.27061C18.5222 2.27061 18.7183 2.31831 18.8826 2.4084C19.6033 2.82178 19.916 4.39577 19.6722 6.42023C19.6139 6.91839 19.5185 7.44306 19.402 7.97832C18.3632 7.72394 17.2291 7.52785 16.0367 7.40066C15.3212 6.42023 14.5793 5.52989 13.832 4.75084C15.5597 3.14505 17.1814 2.26531 18.2837 2.26531V1.0835C16.8263 1.0835 14.9185 2.12222 12.9894 3.9241C11.0603 2.13282 9.15247 1.10469 7.69507 1.10469V2.28651C8.79209 2.28651 10.4191 3.16095 12.1468 4.75614C11.4048 5.53519 10.6629 6.42023 9.95801 7.40066C8.76029 7.52785 7.62617 7.72394 6.58744 7.98362C6.46555 7.45366 6.37546 6.93959 6.31186 6.44673C6.06278 4.42227 6.37016 2.84827 7.08561 2.4296C7.2446 2.33421 7.45128 2.29181 7.69507 2.29181V1.10999C7.2499 1.10999 6.84713 1.20539 6.49735 1.40677C5.00815 2.26531 4.67428 4.94163 5.44272 8.3016C2.14635 9.31913 0 10.9461 0 12.6632C0 14.3856 2.15695 16.0179 5.46392 17.0301C4.70077 20.4007 5.03995 23.0823 6.53445 23.9408C6.87892 24.1422 7.2817 24.2376 7.72687 24.2376C9.18426 24.2376 11.0921 23.1989 13.0212 21.397C14.9503 23.1883 16.8581 24.2164 18.3155 24.2164C18.7607 24.2164 19.1635 24.121 19.5133 23.9196C21.0024 23.0611 21.3363 20.3848 20.5679 17.0248C23.8536 16.0126 26 14.3803 26 12.6632V12.6632ZM19.0999 9.12834C18.9038 9.81199 18.66 10.5168 18.3844 11.2217C18.1671 10.7977 17.9393 10.3738 17.6902 9.94978C17.4464 9.52581 17.1867 9.11244 16.927 8.70967C17.6796 8.82096 18.4056 8.95875 19.0999 9.12834ZM16.6726 14.7724C16.2593 15.4879 15.8353 16.1663 15.3954 16.7969C14.6058 16.8658 13.8055 16.9029 13 16.9029C12.1998 16.9029 11.3995 16.8658 10.6152 16.8022C10.1753 16.1716 9.74603 15.4985 9.33265 14.7883C8.92988 14.0941 8.56421 13.3892 8.23033 12.6791C8.55891 11.9689 8.92988 11.2588 9.32736 10.5645C9.74073 9.84909 10.1647 9.17074 10.6046 8.54008C11.3942 8.47119 12.1945 8.43409 13 8.43409C13.8002 8.43409 14.6005 8.47119 15.3848 8.53478C15.8247 9.16544 16.254 9.83849 16.6673 10.5486C17.0701 11.2429 17.4358 11.9477 17.7697 12.6579C17.4358 13.368 17.0701 14.0782 16.6726 14.7724ZM18.3844 14.0835C18.6706 14.7936 18.9144 15.5038 19.1158 16.1928C18.4215 16.3623 17.6902 16.5054 16.9323 16.6167C17.192 16.2087 17.4517 15.79 17.6955 15.3607C17.9393 14.9367 18.1671 14.5075 18.3844 14.0835ZM13.0106 19.7382C12.5177 19.2294 12.0249 18.6624 11.5373 18.0423C12.0143 18.0635 12.5018 18.0794 12.9947 18.0794C13.4929 18.0794 13.9857 18.0688 14.468 18.0423C13.991 18.6624 13.4982 19.2294 13.0106 19.7382ZM9.06767 16.6167C8.31512 16.5054 7.58907 16.3676 6.89482 16.1981C7.09091 15.5144 7.33469 14.8095 7.61027 14.1047C7.82756 14.5287 8.05544 14.9526 8.30453 15.3766C8.55361 15.8006 8.80799 16.214 9.06767 16.6167ZM12.9841 5.58818C13.477 6.09695 13.9698 6.66401 14.4574 7.28407C13.9804 7.26287 13.4929 7.24697 13 7.24697C12.5018 7.24697 12.009 7.25757 11.5267 7.28407C12.0037 6.66401 12.4965 6.09695 12.9841 5.58818ZM9.06237 8.70967C8.80269 9.11774 8.54301 9.53641 8.29923 9.96568C8.05544 10.3897 7.82756 10.8136 7.61027 11.2376C7.32409 10.5274 7.08031 9.81729 6.87892 9.12834C7.57318 8.96405 8.30453 8.82096 9.06237 8.70967ZM4.26621 15.3448C2.39014 14.5446 1.17652 13.4952 1.17652 12.6632C1.17652 11.8312 2.39014 10.7765 4.26621 9.98158C4.72197 9.78549 5.22014 9.61061 5.7342 9.44632C6.03628 10.485 6.43375 11.5662 6.92662 12.6738C6.43905 13.7761 6.04688 14.8519 5.7501 15.8854C5.22544 15.7211 4.72727 15.5409 4.26621 15.3448ZM7.11741 22.918C6.39666 22.5046 6.08398 20.9306 6.32776 18.9062C6.38606 18.408 6.48145 17.8833 6.59804 17.3481C7.63677 17.6025 8.77089 17.7985 9.96331 17.9257C10.6788 18.9062 11.4207 19.7965 12.168 20.5755C10.4403 22.1813 8.81859 23.0611 7.71627 23.0611C7.47778 23.0558 7.2764 23.0081 7.11741 22.918V22.918ZM19.6881 18.8797C19.9372 20.9041 19.6298 22.4781 18.9144 22.8968C18.7554 22.9922 18.5487 23.0346 18.3049 23.0346C17.2079 23.0346 15.5809 22.1601 13.8532 20.565C14.5952 19.7859 15.3371 18.9009 16.042 17.9204C17.2397 17.7932 18.3738 17.5972 19.4126 17.3375C19.5344 17.8727 19.6298 18.3868 19.6881 18.8797V18.8797ZM21.7285 15.3448C21.2727 15.5409 20.7746 15.7158 20.2605 15.8801C19.9584 14.8413 19.5609 13.7602 19.0681 12.6526C19.5556 11.5503 19.9478 10.4744 20.2446 9.44102C20.7693 9.60531 21.2674 9.78549 21.7338 9.98158C23.6099 10.7818 24.8235 11.8312 24.8235 12.6632C24.8182 13.4952 23.6046 14.5499 21.7285 15.3448V15.3448Z" fill="#61DAFB"/>
<path d="M12.9947 15.0851C14.3323 15.0851 15.4166 14.0007 15.4166 12.6631C15.4166 11.3255 14.3323 10.2412 12.9947 10.2412C11.6571 10.2412 10.5727 11.3255 10.5727 12.6631C10.5727 14.0007 11.6571 15.0851 12.9947 15.0851Z" fill="#61DAFB"/>
</svg>
